# xmcd
#
# Track frame offsets:
#	150
#	16818
#	33432
#	51428
#	68823
#	86829
#	109900
#	131754
#	152886
#	173744
#	198612
#	218622
#	237729
#	256071
#	276002
#	296947
#	317486
#	334370
#
# Disc length: 4724 seconds
#
# Revision: 5
# Processed by: cddbd v1.5.2PL0 Copyright (c) Steve Scherf et al.
# Submitted via: EasyCDDAExtractor 15.3.0.1
#
DISCID=15127212
DTITLE=Eros Ramazzotti - e² (Deluxe Edition) - CD 1
DYEAR=2007
DGENRE=Latin
TTITLE0=No Estamos Solos (Duo Con Ricky Martin)
TTITLE1=Terra Promessa
TTITLE2=Una Historia Importante (Remix)
TTITLE3=Un Cuore Con Le Ali
TTITLE4=Ahora Tu
TTITLE5=Si Bastasen Un Par De Canciones
TTITLE6=Cosas De La Vida (Can't Stop Thinking Of You) (Duo Con Tina Turner)
TTITLE7=Otra Como Tu
TTITLE8=Fabula
TTITLE9=La Aurora
TTITLE10=La Cosa Mas Bella
TTITLE11=Piu' Che Puoi (Duo Con Cher)
TTITLE12=No Te Prometo Nada
TTITLE13=I Belong To You (El Ritmo De La Pasion) (Duo Con Anastacia)
TTITLE14=Nuestra Vida
TTITLE15=Somos Grandes O No
TTITLE16=Donde Se Esconden Los Angeles
TTITLE17=El Tiempo Entre Los Dos
EXTD=
EXTT0=
EXTT1=
EXTT2=
EXTT3=
EXTT4=
EXTT5=
EXTT6=
EXTT7=
EXTT8=
EXTT9=
EXTT10=
EXTT11=
EXTT12=
EXTT13=
EXTT14=
EXTT15=
EXTT16=
EXTT17=
PLAYORDER=
